<?xml version="1.0" encoding="UTF-8"?> <svg xmlns="http://www.w3.org/2000/svg" xmlns:xlink="http://www.w3.org/1999/xlink" version="1.1" id="Layer_1" x="0px" y="0px" viewBox="0 0 679.9 297.3" style="enable-background:new 0 0 679.9 297.3;" xml:space="preserve"> <style type="text/css"> .st0{fill:#FFA400;} .st1{fill:#B01D8C;} .st2{fill:#F15A25;} </style> <g> <path class="st0" d="M186.1,226.1l11-6.3l14.1,24.5L197,219.6c-3.5,2.4-7.1,4.5-11,6.4L186.1,226.1z"></path> <path class="st1" d="M108.8,273.1l12.2,3.3l11.7-43.5c-4.2-0.8-8.3-1.9-12.2-3.3L108.8,273.1z"></path> <path class="st0" d="M184.3,40.1l-12.2-3.3l-7.4,27.6c4.2,0.8,8.3,1.9,12.2,3.3L184.3,40.1z"></path> <path class="st2" d="M219.2,39.2l-11-6.3l-22.3,38.6c3.8,1.8,7.5,4,11,6.4L219.2,39.2z"></path> <path class="st0" d="M86.2,27.8l-11,6.3l25.3,43.7c3.5-2.4,7.1-4.5,11-6.3L86.2,27.8z"></path> <path class="st0" d="M86.2,244.2l11,6.3l14.2-24.8c-3.8-1.9-7.5-4-11-6.4L86.2,244.2z"></path> <path class="st0" d="M21,176.3l3.3,12.2l43.4-11.6c-1.4-4-2.5-8-3.3-12.2L21,176.3z"></path> <path class="st2" d="M260.5,125.3l-3.3-12.2l-27.6,7.3c1.4,4,2.5,8,3.3,12.2L260.5,125.3z"></path> <path class="st1" d="M213.6,92.7L258.3,48l-9-9l-44.7,44.7C207.9,86.5,210.9,89.5,213.6,92.7z"></path> <path class="st2" d="M83.8,204.6l-44.7,44.7l9,9l44.7-44.7C89.5,210.8,86.5,207.8,83.8,204.6z"></path> <path class="st1" d="M204.6,213.6L256,265l9-9l-51.4-51.4C210.8,207.9,207.8,210.8,204.6,213.6z"></path> <path class="st1" d="M92.7,83.7L36,27l-9,9l56.7,56.8C86.5,89.5,89.5,86.5,92.7,83.7z"></path> <path class="st2" d="M234.2,155h63.2v-12.7h-63.2c0.2,2.1,0.3,4.2,0.3,6.3C234.4,150.8,234.3,152.9,234.2,155z"></path> <path class="st2" d="M63.2,142.3H0V155h63.2c-0.2-2.1-0.3-4.2-0.3-6.3C63,146.5,63.1,144.4,63.2,142.3z"></path> <path class="st2" d="M142.4,234.1v63.2h12.7v-63.2c-2.1,0.2-4.2,0.3-6.3,0.3S144.5,234.3,142.4,234.1z"></path> <path class="st2" d="M155,63.2V0h-12.7v63.2c2.1-0.2,4.2-0.3,6.3-0.3S152.9,63,155,63.2z"></path> <polygon class="st0" points="186.1,226.1 186.1,226.1 200.2,250.6 211.2,244.2 197.1,219.7 "></polygon> </g> <g> <path d="M402,87.3c1.7,4.6,2.7,6.5,7.7,6.9v2c-6.8-0.2-14.3-0.2-21.2,0v-2c5-0.4,6-1.7,4.6-5.8l-2.4-6.9H374l-2.4,7.2 c-1.3,4,1.6,5.1,6.4,5.5v2c-5.6-0.2-11.9-0.2-17.4,0v-2c5-0.5,6.9-2.1,8.4-6.2l13.8-39.4h5.3L402,87.3z M374.8,79.2h14.9L382,57.8 L374.8,79.2z"></path> <path d="M411.9,94.2c2.5-0.3,4.6-1.2,4.6-4.6V66.9c0-2.9-1.7-3.7-4.6-3.4v-2c4.6-0.8,8.3-2.2,11.6-4.3c0.8,0.3,1.4,0.9,1.8,1.8 l-1.4,7.3h0.4c0.9-2.7,4.3-8.9,12.6-8.9c5.3,0,11.8,2.5,11.8,13v19.2c0,3.4,2.1,4.3,4.6,4.6v2c-5.9-0.2-11.9-0.2-17.9,0v-2 C438,94,440,93,440,89.6v-19c0-5.6-3-8.7-7.3-8.7c-4.9,0-7.5,4-7.5,8.7v19c0,3.4,2.1,4.4,4.6,4.6v2c-5.9-0.2-11.9-0.2-17.8,0 L411.9,94.2L411.9,94.2z"></path> <path d="M455.9,102.6c0-3.2,2-5.6,5-5.6c2.1,0,4,0.9,4,3.2c0,1.4-0.8,2.6-0.8,4.2c0,3.4,3.6,5.6,9.8,5.6c7.1,0,11.6-2.8,11.6-7.5 c0-3.6-2.7-4.6-9.9-5.9l-9.9-1.7c-6.5-1.1-8.8-4-8.8-7c0-3.6,3-6.1,8-5.9c-3.7-1.6-6.7-5.6-6.7-11c0-7.3,5.5-13.6,15.2-13.6 c6.3,0,10.1,2.7,12.4,5.3c0.1-3.1,2.1-5.2,4.9-5.2c2.2,0,3.7,1.3,3.7,3.6c0,1.6-0.7,3.1-2.4,3.1c-1.3,0-2.1-0.8-3.2-0.8 c-1.2,0-1.4,1.1-1.1,2.1c0.6,1.5,1.1,3.2,1.1,5.3c0,8.2-6.2,13.6-15.1,13.6c-4.1,0-5.9-1.1-8-1.1c-1.9,0-2.7,0.8-2.7,2 c0,1.4,1.4,2,3.7,2.4l11.8,2.1c9,1.6,14.1,4,14.1,10.1c0,7.7-8.1,12.1-19.4,12.1C463.7,112.1,455.9,108.9,455.9,102.6z M480.2,70.9 c0-5.6-1.5-11.4-6.7-11.4s-6.7,5.9-6.7,11.4s1.6,11.4,6.7,11.4C478.7,82.4,480.2,76.5,480.2,70.9z"></path> <path d="M496.7,94.2c2.5-0.3,4.6-1.2,4.6-4.6v-35c0-4.4-1.6-5.6-4.4-5.6v-2c4.3-0.5,8.3-2.2,11.8-4.3c0.8,0.3,1.4,0.9,1.8,1.8 C510,47.1,510,50,510,54.7v35c0,3.4,2.1,4.3,4.6,4.6v2c-5.9-0.3-12-0.3-18,0v-2.1H496.7z"></path> <path d="M517.7,94.2c2.5-0.3,4.6-1.2,4.6-4.6V69.2c0-4.4-1.6-5.6-4.4-5.6v-2c4.3-0.5,8.3-2.2,11.8-4.3c0.8,0.3,1.4,0.9,1.8,1.8 c-0.5,2.6-0.5,5.5-0.5,10.2v20.4c0,3.4,2.1,4.3,4.6,4.6v2c-5.9-0.3-12-0.3-18,0v-2.1H517.7z M521.4,47.4c0-2.7,2.2-4.9,4.9-4.9 s4.9,2.1,4.9,4.9s-2.2,5-4.9,5S521.4,50.2,521.4,47.4z"></path> <path d="M538.7,77.4c0-13.2,8.5-20,18.4-20c8.1,0,13.8,4.6,13.8,10c0,2.7-1.4,4.7-4.2,4.7c-6.9,0-1.4-12.4-9.6-12.4 c-5.9,0-9.1,6.5-9.1,15.6c0,10.7,4.3,19,12,19c3.3,0,6.5-1.4,8.9-5.6h2.3c-2.4,5.4-7.8,8.4-14.2,8.4 C547,97.1,538.7,90.3,538.7,77.4z"></path> <path d="M605.3,89c0,3,1.3,5,4.2,4.6v1.9c-1.4,1.1-3.2,1.5-5.1,1.5c-4,0-6.8-2-6.8-6.2v-0.7H597c-1.1,2.4-5.3,6.9-12.3,6.9 c-5,0-10.6-2.4-10.6-9.5c0-6.4,4.8-11,22.5-13.8V70c0-7.5-1.3-10.7-6.2-10.7c-9.4,0-2.1,11.8-9.8,11.8c-3,0-4.3-1.8-4.3-4.1 c0-5.4,6.5-9.7,16.5-9.7c7.9,0,12.5,2.6,12.5,12L605.3,89L605.3,89z M596.6,84.7v-8.9c-11.8,1.8-13.6,6.7-13.6,10.3 c0,4.6,2.9,7.1,5.9,7.1C593.2,93.2,596.6,89.4,596.6,84.7z"></path> <path d="M611.9,94.2c2.5-0.3,4.6-1.2,4.6-4.6V66.9c0-2.9-1.7-3.7-4.6-3.4v-2c4.6-0.8,8.3-2.2,11.6-4.3c0.8,0.3,1.4,0.9,1.8,1.8 l-1.4,7.3h0.4c0.9-2.7,4.3-8.9,12.6-8.9c5.3,0,11.8,2.5,11.8,13v19.2c0,3.4,2.1,4.3,4.6,4.6v2c-5.9-0.2-11.9-0.2-17.9,0v-2 C638,94,640,93,640,89.6v-19c0-5.6-3-8.7-7.3-8.7c-4.9,0-7.5,4-7.5,8.7v19c0,3.4,2.1,4.4,4.6,4.6v2c-5.9-0.2-11.9-0.2-17.8,0 L611.9,94.2L611.9,94.2z"></path> </g> <g> <path d="M361.2,167.2c3.8-0.7,5.4-1.4,5.4-4.5v-34c0-3.2-1.3-4.5-5.2-4.9v-2c7,0.3,13.4,0,17,0c16.8,0,27,6.9,27,23.3 c0,18.3-12.9,24-22.1,24c-3.9,0-7.5-1.1-12.6-1.1c-3.1,0-5.9,0.4-9.6,1.1v-1.9H361.2z M395.7,146.3c0-13.2-4.7-22-16.1-22 c-1.7,0-3,0.2-4,0.7v37.8c0,3.3,3.1,4.1,6.1,4.1C392.4,166.9,395.7,157.4,395.7,146.3z"></path> <path d="M410,167.2c2.5-0.3,4.6-1.2,4.6-4.6v-20.4c0-4.4-1.6-5.6-4.4-5.6v-2c4.3-0.5,8.3-2.2,11.8-4.3c0.8,0.3,1.4,0.9,1.8,1.8 c-0.5,2.6-0.5,5.5-0.5,10.2v20.4c0,3.4,2.1,4.3,4.6,4.6v2c-5.9-0.3-12-0.3-18,0v-2.1H410z M413.7,120.4c0-2.7,2.2-4.9,4.9-4.9 c2.7,0,4.9,2.1,4.9,4.9s-2.2,5-4.9,5C415.9,125.4,413.7,123.1,413.7,120.4z"></path> <path d="M431,150c0-13.3,8.8-19.6,17.5-19.6c9.1,0,18,6.7,18,20s-8.8,19.6-17.6,19.6C440,170.1,431,163.3,431,150z M457.4,152.5 c0-11.3-3.8-19.8-9.7-19.8c-4.6,0-7.5,5.3-7.5,15.2c0,11.3,3.9,19.8,9.7,19.8C454.4,167.7,457.4,162.4,457.4,152.5z"></path> <path d="M471.6,150.4c0-13.2,8.5-20,18.4-20c8.1,0,13.8,4.6,13.8,10c0,2.7-1.4,4.7-4.2,4.7c-6.9,0-1.4-12.4-9.6-12.4 c-5.9,0-9.1,6.5-9.1,15.6c0,10.7,4.3,19,12,19c3.3,0,6.5-1.4,8.9-5.6h2.3c-2.4,5.4-7.8,8.4-14.2,8.4 C479.8,170.1,471.6,163.3,471.6,150.4z"></path> <path d="M537.8,161.8h2.4c-2.3,5.4-8.1,8.3-14.3,8.3c-9.9,0-17.7-6.9-17.7-19.7c0-12.3,7.2-20,17.2-20c8.2,0,14.9,4.8,14.9,13.5 c0,3.3-1,5.7-4,5.7h-19c0.5,10.4,4.2,17.7,11.7,17.7C532.4,167.2,535.9,165.9,537.8,161.8z M517.3,147.4h14.5 c0.7-8.8-1.9-14.8-7.2-14.8C519.5,132.6,517.3,138.4,517.3,147.4z"></path> <path d="M550.2,167c-1.5,0-2.4,1.2-2.4,2.2h-2l-0.6-10.6h1.8c1.6,5.3,7.6,9.1,12.1,9.1c3.4,0,5.8-2.2,5.8-5.4c0-3.8-3.7-6-8.8-9 c-5.1-2.9-10.7-6.2-10.7-12.7c0-5.9,4.5-10.2,11-10.2c4.7,0,6.9,2.2,9,2.2c1.1,0,1.8-0.5,2.1-1.5h1.8l0.7,10.2h-1.9 c-2.1-5.5-6-8.6-10-8.6c-3.3,0-5.6,2.2-5.6,5.3c0,3.4,2.6,5.3,6.9,7.8c4.4,2.5,12.9,6.5,12.9,14.2c0,6.1-5.3,10.2-11.5,10.2 C555.3,170.1,552.7,167,550.2,167z"></path> <path d="M606.2,161.8h2.4c-2.3,5.4-8.1,8.3-14.3,8.3c-9.9,0-17.7-6.9-17.7-19.7c0-12.3,7.2-20,17.2-20c8.2,0,14.9,4.8,14.9,13.5 c0,3.3-1,5.7-4,5.7h-19c0.5,10.4,4.2,17.7,11.7,17.7C600.8,167.2,604.3,165.9,606.2,161.8z M585.7,147.4h14.5 c0.7-8.8-1.9-14.8-7.2-14.8C587.9,132.6,585.7,138.4,585.7,147.4z"></path> </g> <g> <path d="M623.1,148.5c0-9.6,7.5-18.3,16.2-18.3c5.2,0,10.7,3,10.7,11.3c0,9.6-7.4,18.6-15.8,18.6 C628.9,160.1,623.1,156.8,623.1,148.5z M642.4,139.7c0-5.3-1.4-7.5-3.7-7.5c-5,0-8,10.4-8,18.4c0,5.3,1.4,7.5,3.7,7.5 C639.2,158.1,642.4,147.9,642.4,139.7z"></path> <path d="M679.9,122.3c0,1.9-1.5,3.2-3.3,3.2c-3.4,0-3.4-5.2-6.1-5.2c-1.5,0-3.4,1.6-4.5,9.6l-0.2,1.4h5.7c0.3,0,0.5,0.2,0.5,0.5 l-0.2,1.5c-0.1,0.2-0.2,0.4-0.5,0.4h-5.8l-2.5,17.2c-2.6,17.8-11.1,21.5-16.5,21.5c-4.1,0-6.4-1.9-6.4-4.2c0-1.8,1.5-3.2,3.2-3.2 c3.4,0,3.5,5.3,6.1,5.3c1.7,0,3.9-1.9,5.1-11l3.3-24.3l0.2-1.3h-5c-0.3,0-0.5-0.2-0.5-0.5l0.3-1.5c0.1-0.2,0.2-0.4,0.5-0.4h5.2 c2.7-10.9,10.2-13.2,14.7-13.2C677.6,118.1,679.9,120,679.9,122.3z"></path> </g> <g> <path d="M362,216.8c0-14.3,9.1-24.7,21.9-24.7s22.2,10.3,22.2,24.9c0,14.3-9,24.7-21.9,24.7S362,231.4,362,216.8z M396.5,219.5 c0-14.2-5.7-24.9-13.8-24.9c-5.9,0-11.3,5.7-11.3,19.6c0,14.2,5.7,24.8,13.9,24.8C391.2,239.1,396.5,233.4,396.5,219.5z"></path> <path d="M414.6,231.3v-24.8h-4.7v-1.9c5.6-1.4,8.9-6,10.4-11.3h2.9v10.3h8.7v3h-8.7v25.8c0,2.7,1.4,5.1,4.6,5.1 c1.9,0,3.4-0.8,4.2-1.7v2.4c-1.4,1.9-4.3,3-7.6,3C419,241.2,414.6,238.2,414.6,231.3z"></path> <path d="M439.4,231.3v-24.8h-4.7v-1.9c5.6-1.4,8.9-6,10.4-11.3h2.9v10.3h8.7v3H448v25.8c0,2.7,1.4,5.1,4.6,5.1 c1.9,0,3.4-0.8,4.2-1.7v2.4c-1.4,1.9-4.3,3-7.6,3C443.8,241.2,439.4,238.2,439.4,231.3z"></path> <path d="M490.8,233.4c0,3,1.3,5,4.2,4.6v1.9c-1.4,1.1-3.2,1.5-5.1,1.5c-4,0-6.8-2-6.8-6.2v-0.7h-0.6c-1.1,2.4-5.3,6.9-12.3,6.9 c-5,0-10.6-2.4-10.6-9.5c0-6.4,4.8-11,22.5-13.8v-3.7c0-7.5-1.3-10.7-6.2-10.7c-9.4,0-2.1,11.8-9.8,11.8c-3,0-4.3-1.8-4.3-4.1 c0-5.4,6.5-9.7,16.5-9.7c7.9,0,12.5,2.6,12.5,12L490.8,233.4L490.8,233.4z M482.1,229.1v-8.9c-11.8,1.8-13.6,6.7-13.6,10.3 c0,4.6,2.9,7.1,5.9,7.1C478.6,237.6,482.1,233.8,482.1,229.1z"></path> <path d="M538.6,202.5h15.2v2c-4.5,0.1-6.2,1.2-7.7,6.2l-9.5,30h-4.9l-8.8-27.1l-8.6,27.1h-4.9l-9.8-30.1c-1.6-5-2.7-6-6.5-6.1v-2 h18.4v2c-3.7,0.1-4.6,1.2-3.2,6.1l6.3,20.9l6.9-22.2c-1.4-3.9-2.4-4.8-5.8-4.9v-2h18.4v2c-3.8,0.1-4.9,1.2-3.4,6.1l6.3,20.9 l6.4-20.9c1.5-5-0.4-6.1-4.7-6.2v-1.8H538.6z"></path> <path d="M583.4,233.4c0,3,1.3,5,4.2,4.6v1.9c-1.4,1.1-3.2,1.5-5.1,1.5c-4,0-6.8-2-6.8-6.2v-0.7h-0.6c-1.1,2.4-5.3,6.9-12.3,6.9 c-5,0-10.6-2.4-10.6-9.5c0-6.4,4.8-11,22.5-13.8v-3.7c0-7.5-1.3-10.7-6.2-10.7c-9.4,0-2.1,11.8-9.8,11.8c-3,0-4.3-1.8-4.3-4.1 c0-5.4,6.5-9.7,16.5-9.7c7.9,0,12.5,2.6,12.5,12L583.4,233.4L583.4,233.4z M574.8,229.1v-8.9c-11.8,1.8-13.6,6.7-13.6,10.3 c0,4.6,2.9,7.1,5.9,7.1C571.3,237.6,574.8,233.8,574.8,229.1z"></path> </g> </svg> 